<svg xmlns="http://www.w3.org/2000/svg" width="500" height="500" viewBox="0 0 500 500">
<g>
<path d="M 141.45,119.32 L 150.29,120.43 L 151.50,120.66 L 154.24,121.11 L 155.63,121.33 L 158.47,121.73 L 159.88,121.92 L 162.49,122.23 L 163.03,122.27 L 162.78,122.29 L 162.72,122.35 L 162.74,122.50 L 162.96,122.64 L 163.55,122.95 L 164.08,123.18 L 165.29,123.68 L 166.15,124.02 L 168.05,124.75 L 169.27,125.21 L 171.89,126.20 L 173.50,126.80 L 182.82,130.50 L 189.13,133.23 L 192.33,134.72 L 198.75,137.77 L 202.00,139.42 L 208.52,142.79 L 211.81,144.59 L 218.40,148.27 L 221.72,150.21 L 228.36,154.18 L 231.70,156.26 L 245.09,164.88 L 251.80,169.57 L 265.20,179.20 L 271.86,184.36 L 285.14,194.90 L 291.67,200.48 L 304.67,211.82 L 311.01,217.76 L 323.57,229.81 L 329.64,236.06 L 338.69,245.66 L 344.45,252.07 L 347.19,255.27 L 352.57,261.67 L 355.11,264.86 L 360.11,271.23 L 362.46,274.41 L 367.05,280.75 L 369.20,283.89 L 373.38,290.18 L 375.32,293.29 L 379.09,299.51 L 380.81,302.59 L 384.14,308.72 L 385.64,311.75 L 386.47,313.41 L 386.85,314.13 L 387.56,315.49 L 387.87,316.06 L 388.46,317.11 L 388.71,317.52 L 389.17,318.26 L 389.34,318.51 L 389.66,318.91 L 389.76,318.99 L 389.93,319.05 L 389.95,318.95 L 389.96,318.73 L 390.02,319.02 L 391.15,323.50 L 391.86,326.15 L 393.01,330.80 L 393.55,333.03 L 394.37,336.95 L 394.74,338.83 L 395.23,342.13 L 395.44,343.73 L 395.61,346.56 L 395.66,347.94 L 395.52,350.44 L 395.41,351.66 L 394.95,353.96 L 394.68,355.09 L 393.92,357.32 L 392.43,360.74 L 391.68,362.26 L 389.73,364.91 L 388.67,366.16 L 386.11,368.28 L 384.75,369.27 L 381.59,370.86 L 379.94,371.58 L 376.20,372.63 L 374.26,373.08 L 369.96,373.59 L 367.73,373.77 L 362.88,373.73 L 360.38,373.64 L 354.99,373.06 L 346.31,371.56 L 343.96,371.07 L 338.68,369.59 L 335.94,368.78 L 329.86,366.66 L 326.73,365.53 L 319.88,362.77 L 308.73,357.92 L 296.04,352.15 L 297.10,352.16 L 297.86,352.19 L 299.27,352.27 L 299.83,352.33 L 300.86,352.48 L 301.28,352.58 L 302.67,353.05 L 303.21,353.40 L 304.84,354.30 L 306.50,355.12 L 307.54,355.61 L 309.73,356.64 L 310.93,357.18 L 313.40,358.29 L 314.64,358.83 L 317.13,359.92 L 318.29,360.41 L 320.55,361.35 L 321.50,361.74 L 323.28,362.44 L 323.90,362.66 L 324.94,363.00 L 325.10,363.00 L 325.61,362.45 L 326.13,361.59 L 326.46,360.96 L 327.14,359.58 L 327.51,358.75 L 328.28,357.01 L 328.67,356.06 L 329.91,353.29 L 330.76,351.66 L 331.16,351.00 L 331.95,349.78 L 332.29,349.39 L 332.92,348.74 L 333.16,348.68 L 333.87,348.72 L 334.02,349.13 L 333.93,349.57 L 333.63,350.64 L 333.29,351.48 L 332.93,352.38 L 332.70,352.92 L 332.20,354.05 L 331.91,354.71 L 330.51,357.87 L 329.81,359.59 L 329.59,360.28 L 329.23,361.57 L 329.20,362.09 L 329.24,363.06 L 329.42,363.45 L 329.90,364.19 L 330.32,364.51 L 331.28,365.12 L 331.96,365.41 L 333.45,366.00 L 334.42,366.31 L 336.48,366.96 L 337.75,367.34 L 344.68,369.31 L 348.97,370.37 L 350.89,370.77 L 354.57,371.48 L 356.13,371.68 L 359.05,372.00 L 360.16,372.00 L 362.12,371.65 L 363.13,371.00 L 363.53,370.39 L 364.26,368.97 L 364.58,367.90 L 364.89,366.76 L 365.04,366.09 L 365.34,364.68 L 365.49,363.86 L 366.10,360.50 L 355.03,355.08 L 351.12,353.12 L 348.88,351.97 L 347.94,351.46 L 346.18,350.48 L 345.48,350.07 L 344.20,349.27 L 343.74,348.94 L 342.92,348.33 L 342.69,348.08 L 342.34,347.64 L 342.33,347.47 L 342.43,347.19 L 342.65,347.11 L 343.19,346.99 L 343.63,346.98 L 345.64,346.84 L 347.60,346.64 L 348.80,346.50 L 351.30,346.19 L 352.66,346.01 L 355.43,345.64 L 356.82,345.44 L 359.57,345.04 L 360.83,344.85 L 363.28,344.46 L 364.29,344.29 L 366.14,343.96 L 366.75,343.83 L 367.30,343.71 L 367.48,343.66 L 367.77,343.57 L 367.80,343.53 L 368.05,343.16 L 368.01,342.95 L 367.86,342.86 L 367.46,342.69 L 367.08,342.61 L 366.21,342.47 L 365.55,342.41 L 364.10,342.29 L 363.12,342.24 L 360.99,342.13 L 359.64,342.08 L 356.72,341.97 L 354.94,341.92 L 351.14,341.80 L 348.87,341.74 L 330.23,341.22 L 323.37,335.92 L 320.18,333.44 L 317.80,331.58 L 316.58,330.62 L 314.14,328.69 L 313.00,327.79 L 310.80,326.04 L 309.89,325.31 L 307.24,323.25 L 305.62,322.04 L 304.93,321.56 L 303.65,320.69 L 303.20,320.42 L 302.43,320.00 L 302.29,320.00 L 301.98,320.20 L 301.68,320.53 L 301.48,320.79 L 300.59,322.03 L 300.01,322.93 L 298.78,324.91 L 298.08,326.11 L 296.65,328.61 L 295.90,329.98 L 294.52,332.48 L 293.69,333.95 L 293.31,334.59 L 291.88,336.89 L 291.30,337.68 L 290.21,339.05 L 289.77,339.43 L 288.94,339.98 L 288.60,339.98 L 287.61,339.94 L 287.26,339.84 L 287.24,339.72 L 287.28,339.43 L 287.45,339.20 L 287.88,338.65 L 288.23,338.25 L 289.16,336.88 L 290.06,335.38 L 290.60,334.41 L 291.74,332.36 L 292.35,331.22 L 293.60,328.87 L 294.23,327.67 L 295.46,325.28 L 296.02,324.15 L 297.10,321.97 L 297.55,321.04 L 298.35,319.31 L 298.60,318.70 L 298.83,318.14 L 298.90,317.94 L 299.00,317.59 L 299.00,317.51 L 298.69,316.97 L 298.20,316.36 L 297.82,315.94 L 296.99,315.03 L 296.47,314.49 L 295.35,313.34 L 294.71,312.69 L 291.90,309.90 L 290.27,308.34 L 286.90,305.11 L 285.15,303.47 L 281.62,300.19 L 279.95,298.67 L 276.69,295.73 L 275.30,294.52 L 273.96,293.36 L 273.37,292.87 L 272.27,291.95 L 271.82,291.60 L 271.00,290.98 L 270.72,290.79 L 270.24,290.50 L 270.14,290.50 L 269.68,290.81 L 269.16,291.31 L 268.81,291.69 L 268.06,292.53 L 267.61,293.06 L 266.66,294.19 L 266.13,294.85 L 263.84,297.69 L 262.56,299.34 L 259.92,302.77 L 258.58,304.55 L 255.90,308.13 L 254.66,309.84 L 252.26,313.16 L 251.27,314.58 L 250.33,315.95 L 249.93,316.55 L 249.18,317.68 L 248.90,318.15 L 248.39,318.99 L 248.23,319.29 L 248.00,319.80 L 248.00,319.91 L 248.28,320.22 L 248.72,320.59 L 249.07,320.85 L 249.83,321.43 L 250.32,321.79 L 251.36,322.54 L 251.98,322.97 L 254.67,324.85 L 256.28,325.95 L 259.68,328.24 L 261.54,329.47 L 265.04,331.80 L 267.04,333.16 L 267.88,333.75 L 269.46,334.87 L 270.11,335.35 L 271.30,336.25 L 271.76,336.62 L 272.58,337.32 L 272.86,337.59 L 273.34,338.11 L 273.46,338.31 L 273.63,338.66 L 273.60,338.78 L 273.46,338.99 L 273.29,339.05 L 272.53,339.17 L 271.66,339.23 L 271.06,339.24 L 269.75,339.27 L 268.94,339.27 L 267.21,339.27 L 266.21,339.26 L 264.11,339.23 L 262.93,339.21 L 260.48,339.15 L 259.14,339.12 L 257.78,339.08 L 258.27,339.09 L 259.59,339.12 L 261.95,339.15 L 263.09,339.16 L 265.10,339.16 L 266.05,339.16 L 267.68,339.13 L 268.44,339.11 L 269.67,339.05 L 270.23,339.01 L 271.03,338.91 L 271.38,338.86 L 271.75,338.74 L 271.88,338.67 L 271.79,338.51 L 271.77,338.49 L 271.47,338.28 L 271.27,338.15 L 270.65,337.72 L 270.30,337.48 L 269.40,336.87 L 268.92,336.54 L 267.77,335.76 L 266.56,334.94 L 263.57,332.91 L 258.50,329.49 L 254.48,326.76 L 246.24,320.93 L 242.11,317.96 L 233.79,311.74 L 229.63,308.59 L 221.39,302.12 L 217.29,298.86 L 209.30,292.28 L 205.35,288.98 L 197.77,282.42 L 194.05,279.16 L 187.05,272.77 L 183.64,269.60 L 177.39,263.52 L 175.89,262.02 L 173.04,259.11 L 169.05,254.88 L 167.89,253.62 L 165.74,251.41 L 164.71,250.37 L 162.97,248.73 L 162.57,248.37 L 161.88,247.78 L 161.56,247.51 L 161.04,247.12 L 160.80,246.95 L 160.47,246.79 L 160.22,246.83 L 160.20,246.91 L 160.20,247.35 L 160.22,247.61 L 160.31,248.40 L 160.36,248.84 L 160.53,249.97 L 160.63,250.57 L 160.88,252.01 L 161.01,252.78 L 161.33,254.53 L 161.50,255.45 L 161.89,257.49 L 162.09,258.55 L 162.55,260.88 L 162.79,262.08 L 163.31,264.67 L 163.85,267.33 L 165.11,273.37 L 165.77,276.51 L 167.26,283.43 L 168.03,286.99 L 169.54,293.91 L 168.37,288.60 L 167.67,285.37 L 166.31,279.08 L 165.70,276.22 L 164.52,270.67 L 164.00,268.18 L 163.01,263.39 L 162.59,261.28 L 161.79,257.25 L 161.47,255.53 L 160.87,252.28 L 160.64,250.95 L 160.23,248.49 L 160.10,247.56 L 159.28,241.62 L 167.60,250.56 L 170.15,253.29 L 171.58,254.78 L 172.17,255.38 L 173.27,256.48 L 173.73,256.89 L 174.58,257.64 L 174.93,257.90 L 175.59,258.35 L 175.87,258.48 L 176.39,258.66 L 176.62,258.68 L 177.50,258.53 L 177.97,258.24 L 179.03,257.52 L 180.07,256.76 L 180.74,256.27 L 182.17,255.20 L 183.00,254.57 L 184.75,253.25 L 185.72,252.50 L 189.85,249.34 L 192.13,247.56 L 196.81,243.93 L 199.17,242.07 L 203.87,238.37 L 206.05,236.64 L 208.19,234.94 L 209.18,234.15 L 211.11,232.60 L 211.98,231.90 L 213.64,230.56 L 214.34,229.99 L 215.66,228.90 L 216.16,228.47 L 217.08,227.70 L 217.36,227.44 L 217.80,227.03 L 217.82,226.97 L 217.55,226.06 L 217.02,224.95 L 216.61,224.21 L 215.69,222.62 L 215.13,221.71 L 213.93,219.81 L 213.26,218.80 L 211.02,215.39 L 209.36,212.83 L 208.52,211.52 L 206.84,208.88 L 206.06,207.64 L 204.57,205.25 L 203.96,204.25 L 202.19,201.43 L 201.10,199.79 L 200.64,199.13 L 199.78,197.94 L 199.48,197.57 L 198.96,197.00 L 198.87,197.00 L 198.30,197.22 L 197.51,197.59 L 196.93,197.87 L 195.65,198.49 L 194.84,198.89 L 193.13,199.73 L 192.14,200.23 L 190.06,201.28 L 188.90,201.86 L 186.51,203.07 L 185.23,203.73 L 179.83,206.49 L 176.91,208.00 L 172.11,210.46 L 169.18,211.93 L 167.85,212.59 L 165.28,213.84 L 164.15,214.38 L 161.97,215.41 L 161.03,215.83 L 159.26,216.62 L 158.53,216.92 L 157.18,217.46 L 156.66,217.64 L 155.75,217.93 L 155.46,217.98 L 155.00,218.01 L 154.95,217.92 L 155.18,217.49 L 155.70,217.03 L 156.14,216.72 L 157.14,216.03 L 157.81,215.62 L 159.25,214.73 L 160.14,214.21 L 162.01,213.13 L 163.10,212.53 L 165.37,211.27 L 166.64,210.58 L 169.29,209.16 L 170.75,208.40 L 173.74,206.83 L 175.37,206.00 L 183.58,201.70 L 186.06,200.38 L 187.19,199.76 L 189.39,198.56 L 190.36,198.02 L 192.22,196.98 L 193.00,196.53 L 194.45,195.68 L 195.01,195.34 L 196.00,194.72 L 196.31,194.50 L 196.79,194.13 L 196.81,194.06 L 196.77,193.61 L 196.63,193.09 L 196.51,192.74 L 195.90,191.08 L 195.43,189.96 L 194.38,187.53 L 193.73,186.12 L 192.36,183.20 L 191.59,181.64 L 189.42,177.15 L 188.15,174.43 L 187.64,173.29 L 186.72,171.20 L 186.44,170.48 L 186.19,169.83 L 186.11,169.60 L 186.00,169.21 L 186.00,169.13 L 185.81,168.26 L 185.49,167.86 L 185.20,167.76 L 184.55,167.61 L 184.08,167.63 L 183.04,167.75 L 182.35,167.91 L 180.87,168.30 L 179.95,168.61 L 177.97,169.29 L 176.77,169.75 L 174.24,170.74 L 172.74,171.35 L 169.60,172.65 L 167.78,173.43 L 161.72,175.98 L 158.11,177.47 L 156.64,178.07 L 155.23,178.64 L 154.63,178.87 L 153.50,179.31 L 153.06,179.48 L 152.26,179.78 L 152.00,179.87 L 151.57,180.00 L 151.51,180.00 L 150.41,180.45 L 149.42,181.12 L 148.95,181.54 L 148.02,182.31 L 147.59,182.51 L 147.44,182.45 L 147.18,182.20 L 147.08,181.89 L 146.88,181.15 L 146.77,180.57 L 146.64,178.93 L 146.71,178.61 L 146.77,178.53 L 146.91,178.45 L 147.01,178.51 L 147.76,178.49 L 148.65,178.30 L 149.25,178.13 L 150.54,177.73 L 151.28,177.47 L 152.81,176.92 L 153.62,176.59 L 164.24,172.25 L 167.48,170.90 L 168.98,170.27 L 171.88,169.03 L 173.18,168.46 L 175.66,167.38 L 176.72,166.90 L 178.71,166.00 L 179.49,165.63 L 180.90,164.95 L 181.36,164.71 L 182.12,164.28 L 182.23,164.17 L 182.45,163.24 L 182.38,162.14 L 182.25,161.38 L 181.91,159.72 L 181.65,158.71 L 181.06,156.57 L 180.67,155.35 L 178.70,148.68 L 178.15,146.64 L 177.94,145.80 L 177.57,144.24 L 177.48,143.73 L 177.04,141.95 L 176.71,141.09 L 176.50,140.80 L 176.05,140.31 L 175.76,140.18 L 175.16,140.00 L 174.78,140.00 L 173.90,140.10 L 173.05,140.27 L 172.52,140.39 L 171.37,140.67 L 170.70,140.85 L 169.31,141.22 L 168.54,141.44 L 165.25,142.40 L 163.43,142.96 L 159.69,144.12 L 157.79,144.74 L 154.00,145.99 L 152.21,146.60 L 148.76,147.80 L 147.29,148.35 L 145.88,148.87 L 145.27,149.11 L 144.10,149.58 L 143.63,149.78 L 142.76,150.17 L 142.45,150.32 L 141.92,150.61 L 141.81,150.71 L 140.49,152.40 L 139.81,153.76 L 139.69,154.35 L 139.48,155.26 L 139.37,155.52 L 139.33,155.47 L 139.25,155.24 L 139.22,154.95 L 139.16,154.23 L 139.14,153.68 L 138.99,152.35 L 138.81,151.74 L 138.66,151.56 L 138.33,151.29 L 138.10,151.26 L 137.59,151.27 L 137.25,151.37 L 127.46,154.22 L 124.34,155.14 L 122.87,155.58 L 120.00,156.44 L 118.70,156.84 L 116.18,157.60 L 115.10,157.94 L 113.04,158.58 L 112.23,158.85 L 110.75,159.33 L 110.25,159.50 L 109.44,159.79 L 109.33,159.86 L 109.00,160.54 L 108.99,161.37 L 109.07,161.95 L 109.31,163.22 L 109.51,163.99 L 109.97,165.62 L 110.27,166.54 L 110.93,168.47 L 111.33,169.52 L 112.18,171.68 L 112.66,172.83 L 114.74,177.55 L 115.97,180.00 L 117.62,183.24 L 118.55,185.00 L 118.96,185.70 L 119.74,186.97 L 120.09,187.44 L 120.77,188.28 L 121.10,188.56 L 121.75,189.02 L 122.09,189.13 L 122.77,189.26 L 123.15,189.22 L 123.93,189.09 L 124.38,188.94 L 125.32,188.58 L 125.87,188.34 L 129.43,186.80 L 131.49,185.94 L 132.37,185.59 L 134.03,184.94 L 134.73,184.68 L 136.04,184.22 L 136.58,184.06 L 137.59,183.79 L 137.98,183.71 L 138.71,183.61 L 138.99,183.62 L 139.88,183.80 L 140.07,184.11 L 140.02,184.79 L 139.53,185.30 L 139.05,185.59 L 137.92,186.19 L 137.11,186.53 L 135.32,187.24 L 134.16,187.64 L 131.01,188.76 L 129.24,189.42 L 128.50,189.71 L 127.13,190.28 L 126.58,190.53 L 125.58,191.02 L 125.20,191.25 L 124.51,191.70 L 124.28,191.91 L 123.88,192.34 L 123.77,192.55 L 123.57,193.40 L 123.74,193.88 L 123.99,194.36 L 124.28,194.88 L 124.49,195.22 L 125.49,196.83 L 126.17,197.90 L 127.65,200.19 L 128.50,201.50 L 130.28,204.20 L 131.22,205.61 L 133.11,208.44 L 134.03,209.82 L 135.86,212.51 L 136.68,213.70 L 138.25,215.98 L 138.88,216.86 L 139.48,217.70 L 139.73,218.04 L 140.20,218.66 L 140.37,218.88 L 140.94,219.47 L 141.25,219.60 L 141.38,219.53 L 141.63,219.28 L 141.75,219.01 L 142.00,218.37 L 142.13,217.88 L 142.48,216.79 L 142.64,216.49 L 142.70,216.57 L 142.79,216.89 L 142.83,217.29 L 142.88,218.26 L 142.91,219.00 L 142.97,220.05 L 143.04,220.99 L 143.10,221.56 L 143.36,224.13 L 143.54,225.73 L 143.92,228.94 L 143.88,228.75 L 143.62,227.59 L 142.59,225.27 L 142.27,224.64 L 141.40,223.22 L 140.92,222.46 L 139.70,220.68 L 139.04,219.72 L 137.38,217.44 L 134.34,213.30 L 131.78,209.82 L 127.12,203.02 L 124.87,199.65 L 120.84,193.08 L 118.91,189.83 L 115.52,183.53 L 113.92,180.42 L 111.20,174.43 L 109.93,171.47 L 107.89,165.82 L 106.95,163.04 L 105.61,157.76 L 105.02,155.17 L 104.39,150.30 L 104.24,143.50 L 104.37,141.52 L 104.99,137.95 L 105.36,136.23 L 106.49,133.15 L 107.12,131.67 L 108.77,129.09 L 109.66,127.85 L 111.84,125.74 L 113.00,124.74 L 115.74,123.10 L 117.17,122.33 L 120.46,121.14 L 122.18,120.60 L 126.04,119.84 L 132.50,119.20 L 135.42,119.07 M 369.66,362.30 L 369.43,362.39 L 368.45,363.53 L 367.87,364.88 L 367.71,365.66 L 367.09,368.23 L 366.61,369.88 L 366.40,370.40 L 366.13,371.19 L 366.15,371.44 L 366.34,371.85 L 366.69,371.94 L 367.61,372.05 L 368.44,372.01 L 369.33,371.96 L 369.89,371.92 L 371.08,371.82 L 371.79,371.75 L 376.68,370.82 L 380.00,369.78 L 381.45,369.16 L 382.85,368.52 L 383.45,368.20 L 384.57,367.55 L 385.00,367.24 L 385.77,366.62 L 385.98,366.33 L 386.30,365.77 L 386.25,365.53 L 385.55,365.06 L 384.52,364.69 L 383.80,364.49 L 382.23,364.08 L 381.32,363.88 L 379.44,363.48 L 378.45,363.30 L 374.45,362.61 L 372.80,362.43 L 371.25,362.29 L 370.67,362.28 M 248.24,351.40 L 251.60,351.71 L 258.30,352.24 L 261.63,352.39 L 268.26,352.63 L 271.59,352.64 L 277.48,352.61 L 276.00,352.66 L 269.89,352.69 L 266.82,352.66 L 260.52,352.39 L 257.35,352.22 L 250.84,351.66 L 247.55,351.34 L 243.52,350.83 M 214.17,337.14 L 212.68,337.06 L 211.15,336.96 M 181.59,334.30 L 182.02,334.44 L 183.18,334.71 L 183.81,334.84 L 185.48,335.08 L 186.38,335.19 L 188.68,335.43 L 189.92,335.54 L 192.97,335.78 L 194.61,335.91 L 198.15,336.15 L 197.86,336.13 L 194.09,335.87 L 192.52,335.75 L 189.59,335.52 L 188.40,335.41 L 186.20,335.18 L 185.32,335.06 L 183.72,334.83 L 183.11,334.70 L 181.99,334.44 L 181.57,334.29 L 181.49,334.26 M 178.63,331.00 L 178.86,331.59 L 179.26,332.44 L 179.81,333.25 L 180.01,333.46 L 180.49,333.79 L 180.22,333.66 L 179.81,333.25 L 179.26,332.44 L 178.86,331.59 L 178.63,331.00 L 178.55,330.78 M 244.50,262.78 L 243.56,263.60 L 242.44,264.67 L 241.68,265.43 L 240.02,267.10 L 239.02,268.12 L 236.93,270.28 L 235.75,271.51 L 233.32,274.05 L 232.01,275.43 L 229.34,278.24 L 227.96,279.71 L 222.32,285.74 L 219.56,288.74 L 218.17,290.28 L 217.40,291.16 L 217.09,291.53 L 216.06,292.86 L 215.82,293.35 L 215.49,294.22 L 215.55,294.57 L 215.79,295.25 L 216.08,295.60 L 216.62,296.13 L 217.24,296.68 L 217.66,297.04 L 218.58,297.82 L 219.14,298.28 L 220.31,299.24 L 220.98,299.79 L 223.88,302.12 L 225.55,303.44 L 229.04,306.17 L 230.89,307.60 L 234.53,310.40 L 236.18,311.64 L 239.33,314.00 L 240.62,314.95 L 241.85,315.84 L 242.38,316.22 L 243.36,316.92 L 243.75,317.18 L 244.44,317.65 L 244.67,317.79 L 245.04,318.00 L 245.09,318.00 L 245.38,317.79 L 245.72,317.45 L 245.94,317.19 L 247.01,315.92 L 247.73,314.99 L 249.29,312.96 L 250.20,311.73 L 252.08,309.16 L 253.08,307.75 L 259.19,299.21 L 261.04,296.66 L 261.80,295.61 L 262.54,294.61 L 262.85,294.18 L 263.44,293.39 L 263.67,293.09 L 266.02,289.56 L 266.57,288.56 L 266.74,288.17 L 267.00,287.48 L 267.00,287.29 L 266.76,286.62 L 266.38,285.96 L 266.09,285.54 L 265.45,284.63 L 265.04,284.10 L 264.18,282.99 L 263.68,282.37 L 261.50,279.75 L 260.24,278.31 L 257.63,275.35 L 256.26,273.86 L 253.53,270.92 L 252.22,269.57 L 249.68,266.98 L 248.59,265.94 L 247.55,264.95 L 247.09,264.54 L 246.22,263.78 L 245.86,263.50 L 245.21,263.02 L 244.98,262.90 L 244.59,262.73 M 384.31,293.04 L 384.77,295.23 L 385.61,299.17 L 386.01,301.06 L 386.75,304.46 L 387.10,306.10 L 387.74,309.01 L 388.05,310.41 L 388.60,312.89 L 388.87,314.09 L 389.36,316.20 L 389.59,317.22 L 389.64,317.41 L 389.59,317.25 L 389.34,316.29 L 389.09,315.27 L 388.93,314.57 L 388.58,313.03 L 388.37,312.06 L 387.91,310.00 L 387.65,308.77 L 387.09,306.18 L 386.77,304.68 L 386.10,301.55 L 385.73,299.78 L 384.95,296.10 L 384.52,294.06 L 383.64,289.83 L 383.56,289.45 M 167.40,315.03 L 166.45,312.94 L 166.45,312.94 M 155.53,284.84 L 159.31,295.41 L 161.45,300.82 L 165.04,309.62 L 163.26,305.44 L 161.72,301.73 L 158.96,294.56 L 157.63,291.01 L 155.26,284.08 L 154.89,282.98 M 170.34,297.52 L 169.92,295.61 L 169.82,295.18 M 219.71,230.00 L 219.18,230.25 L 218.52,230.66 L 218.06,230.97 L 217.06,231.66 L 216.44,232.10 L 215.13,233.04 L 214.38,233.58 L 212.82,234.73 L 211.96,235.37 L 210.19,236.69 L 209.24,237.40 L 205.32,240.37 L 203.23,241.96 L 199.01,245.21 L 196.92,246.84 L 192.79,250.08 L 190.89,251.59 L 187.24,254.51 L 185.72,255.75 L 184.27,256.95 L 183.64,257.48 L 182.47,258.48 L 182.00,258.89 L 178.50,261.99 L 183.51,266.74 L 187.22,270.24 L 189.93,272.77 L 191.36,274.09 L 197.16,279.45 L 199.87,281.93 L 202.52,284.34 L 203.70,285.41 L 205.97,287.46 L 206.90,288.28 L 208.61,289.80 L 209.20,290.30 L 209.73,290.76 L 209.92,290.91 L 210.25,291.17 L 210.32,291.22 L 211.00,291.62 L 211.31,291.75 L 211.89,291.98 L 212.04,291.98 L 212.49,291.64 L 213.09,291.08 L 213.53,290.66 L 214.49,289.72 L 215.08,289.13 L 216.34,287.87 L 217.06,287.15 L 218.56,285.63 L 219.38,284.79 L 221.06,283.07 L 221.95,282.15 L 225.62,278.36 L 227.51,276.39 L 231.28,272.44 L 233.06,270.58 L 234.80,268.73 L 235.61,267.87 L 237.20,266.18 L 237.91,265.42 L 239.28,263.94 L 239.87,263.30 L 240.97,262.10 L 241.40,261.62 L 242.17,260.75 L 242.41,260.46 L 242.79,259.98 L 242.82,259.91 L 242.62,259.16 L 242.18,258.32 L 241.84,257.76 L 241.07,256.58 L 240.59,255.90 L 239.59,254.51 L 239.02,253.78 L 236.87,251.00 L 235.06,248.65 L 234.05,247.34 L 229.83,241.79 L 227.91,239.25 L 225.10,235.66 L 223.36,233.56 L 222.62,232.72 L 221.23,231.20 L 220.73,230.73 L 220.27,230.31 L 220.09,230.19 L 219.79,230.00 M 154.20,280.87 L 154.12,280.63 L 154.10,280.57 M 145.49,241.14 L 145.77,243.18 L 146.33,247.21 L 146.60,249.08 L 146.84,250.73 L 146.75,250.23 L 145.71,243.35 L 145.03,237.73 M 130.67,121.48 L 128.87,121.62 L 125.41,122.00 L 123.92,122.33 L 121.10,123.08 L 119.96,123.60 L 116.56,125.38 L 114.57,126.64 L 113.71,127.32 L 112.08,128.72 L 111.39,129.48 L 110.09,131.06 L 109.56,131.92 L 108.58,133.71 L 108.19,134.69 L 107.50,136.72 L 107.25,137.84 L 106.83,140.15 L 106.71,141.43 L 106.53,144.05 L 106.52,145.50 L 106.57,148.74 L 106.66,150.78 L 106.72,151.66 L 106.86,153.32 L 106.94,153.94 L 107.12,155.01 L 107.22,155.25 L 107.62,156.18 L 107.87,156.45 L 108.41,156.86 L 108.87,156.88 L 109.92,156.80 L 110.75,156.58 L 111.65,156.33 L 112.20,156.16 L 113.37,155.79 L 114.07,155.57 L 116.60,154.76 L 118.88,154.05 L 120.21,153.64 L 125.93,151.86 L 128.75,151.00 L 132.73,149.71 L 135.06,148.86 L 135.99,148.49 L 137.67,147.77 L 138.19,147.48 L 138.65,147.21 L 138.79,147.10 L 139.00,146.90 L 139.00,146.83 L 139.45,146.27 L 140.12,146.22 L 140.55,146.38 L 141.19,146.38 L 141.93,146.28 L 142.44,146.18 L 143.55,145.95 L 144.22,145.79 L 145.63,145.46 L 146.44,145.25 L 149.88,144.36 L 151.84,143.81 L 155.87,142.67 L 157.94,142.06 L 162.08,140.82 L 164.04,140.20 L 167.83,139.00 L 169.43,138.46 L 170.98,137.93 L 171.65,137.69 L 172.91,137.22 L 173.42,137.02 L 174.34,136.64 L 174.66,136.49 L 175.19,136.21 L 175.29,136.11 L 175.81,134.79 L 175.93,133.52 L 175.83,132.87 L 175.40,131.61 L 174.83,130.88 L 174.36,130.54 L 173.26,129.86 L 172.46,129.50 L 170.69,128.76 L 169.50,128.32 L 162.34,125.99 L 157.50,124.66 L 155.09,124.12 L 150.28,123.11 L 147.94,122.73 L 143.29,122.05 L 141.06,121.84 L 136.69,121.50 L 134.65,121.46 M 235.00,127.57 L 231.48,127.32 L 224.64,126.83 L 221.51,126.60 L 215.41,126.16 L 212.62,125.96 L 207.22,125.56 L 204.77,125.39 L 200.02,125.04 L 197.87,124.89 L 193.73,124.58 L 191.86,124.45 L 188.28,124.18 L 186.68,124.07 L 183.61,123.84 L 182.24,123.74 L 179.64,123.54 L 178.49,123.46 L 176.31,123.29 L 175.36,123.22 L 173.55,123.08 L 172.77,123.02 L 172.73,123.02 L 175.45,123.21 L 177.05,123.33 L 180.66,123.59 L 182.53,123.73 L 186.60,124.02 L 188.67,124.17 L 193.08,124.49 L 207.00,125.51 L 211.74,125.86 L 221.46,126.57 L 223.87,126.75 L 228.57,127.09 L 230.89,127.26 L 235.33,127.58 L 237.51,127.74 L 241.55,128.04 L 243.51,128.18 L 247.04,128.44 L 248.72,128.56 L 251.58,128.77 L 255.00,129.02 L 242.62,128.12 Z" fill="rgba(158,126,100,1)"/>
<path d="M 371.25,362.29 L 372.80,362.43 L 374.45,362.61 L 378.45,363.30 L 379.44,363.48 L 381.32,363.88 L 382.23,364.08 L 383.80,364.49 L 384.52,364.69 L 385.55,365.06 L 386.25,365.53 L 386.30,365.77 L 385.98,366.33 L 385.77,366.62 L 385.00,367.24 L 384.57,367.55 L 383.45,368.20 L 382.85,368.52 L 381.45,369.16 L 380.00,369.78 L 376.68,370.82 L 371.79,371.75 L 371.08,371.82 L 369.89,371.92 L 369.33,371.96 L 368.44,372.01 L 367.61,372.05 L 366.69,371.94 L 366.34,371.85 L 366.15,371.44 L 366.13,371.19 L 366.40,370.40 L 366.61,369.88 L 367.09,368.23 L 367.71,365.66 L 367.87,364.88 L 368.45,363.53 L 369.43,362.39 L 369.66,362.30 L 370.67,362.28 M 342.33,347.47 L 342.34,347.64 L 342.69,348.08 L 342.92,348.33 L 343.74,348.94 L 344.20,349.27 L 345.48,350.07 L 346.18,350.48 L 347.94,351.46 L 348.88,351.97 L 351.12,353.12 L 355.03,355.08 L 366.10,360.50 L 365.49,363.86 L 365.34,364.68 L 365.04,366.09 L 364.89,366.76 L 364.58,367.90 L 364.26,368.97 L 363.53,370.39 L 363.13,371.00 L 362.12,371.65 L 360.16,372.00 L 359.05,372.00 L 356.13,371.68 L 354.57,371.48 L 350.89,370.77 L 348.97,370.37 L 344.68,369.31 L 337.75,367.34 L 336.48,366.96 L 334.42,366.31 L 333.45,366.00 L 331.96,365.41 L 331.28,365.12 L 330.32,364.51 L 329.90,364.19 L 329.42,363.45 L 329.24,363.06 L 329.20,362.09 L 329.23,361.57 L 329.59,360.28 L 329.81,359.59 L 330.51,357.87 L 331.91,354.71 L 332.20,354.05 L 332.70,352.92 L 332.93,352.38 L 333.29,351.48 L 333.63,350.64 L 333.93,349.57 L 334.02,349.13 L 333.87,348.72 L 333.16,348.68 L 332.92,348.74 L 332.29,349.39 L 331.95,349.78 L 331.16,351.00 L 330.76,351.66 L 329.91,353.29 L 328.67,356.06 L 328.28,357.01 L 327.51,358.75 L 327.14,359.58 L 326.46,360.96 L 326.13,361.59 L 325.61,362.45 L 325.10,363.00 L 324.94,363.00 L 323.90,362.66 L 323.28,362.44 L 321.50,361.74 L 320.55,361.35 L 318.29,360.41 L 317.13,359.92 L 314.64,358.83 L 313.40,358.29 L 310.93,357.18 L 309.73,356.64 L 307.54,355.61 L 306.50,355.12 L 304.84,354.30 L 303.21,353.40 L 302.67,353.05 L 301.28,352.58 L 300.86,352.48 L 299.83,352.33 L 299.27,352.27 L 297.86,352.19 L 297.10,352.16 L 295.21,352.14 L 294.20,352.14 L 292.83,352.16 L 297.31,351.93 L 301.54,351.64 L 310.09,350.99 L 314.52,350.58 L 323.46,349.71 L 328.05,349.19 L 337.29,348.09 L 342.00,347.46 L 342.35,347.41 M 218.30,346.42 L 223.00,347.34 L 232.34,349.10 L 236.73,349.81 L 241.06,350.50 L 242.48,350.70 L 241.37,350.57 L 237.91,350.11 L 230.79,348.95 L 227.19,348.34 L 219.71,346.85 L 215.92,346.07 L 208.00,344.24 L 195.50,341.10 L 208.90,344.37 M 360.83,344.85 L 359.57,345.04 L 356.82,345.44 L 355.43,345.64 L 352.66,346.01 L 351.85,346.12 L 352.90,345.98 L 353.99,345.83 L 356.07,345.54 L 357.00,345.41 L 358.79,345.15 L 359.58,345.03 L 361.03,344.82 M 363.28,344.46 L 362.40,344.60 L 363.54,344.42 M 367.80,343.53 L 367.77,343.57 L 367.48,343.66 L 367.30,343.71 L 366.75,343.83 L 366.14,343.96 L 364.72,344.21 L 365.00,344.16 L 366.50,343.86 L 366.99,343.73 L 367.78,343.48 L 367.88,343.42 M 303.20,320.42 L 303.65,320.69 L 304.93,321.56 L 305.62,322.04 L 307.24,323.25 L 309.89,325.31 L 310.80,326.04 L 313.00,327.79 L 314.14,328.69 L 316.58,330.62 L 317.80,331.58 L 320.18,333.44 L 323.37,335.92 L 330.23,341.22 L 348.87,341.74 L 351.14,341.80 L 354.94,341.92 L 356.72,341.97 L 359.64,342.08 L 360.99,342.13 L 363.12,342.24 L 364.10,342.29 L 365.55,342.41 L 365.63,342.42 L 365.58,342.42 L 363.98,342.33 L 362.97,342.29 L 360.81,342.20 L 359.54,342.15 L 356.90,342.06 L 355.42,342.01 L 352.36,341.91 L 350.71,341.86 L 343.78,341.67 L 340.00,341.58 L 328.93,341.29 L 325.44,341.19 L 323.80,341.14 L 320.58,341.04 L 319.11,340.99 L 316.26,340.89 L 315.00,340.84 L 312.61,340.75 L 311.61,340.71 L 309.76,340.62 L 309.07,340.58 L 307.84,340.51 L 307.50,340.48 L 305.93,340.38 L 304.39,340.31 L 303.39,340.27 L 301.25,340.18 L 300.00,340.14 L 297.36,340.05 L 295.89,340.00 L 292.85,339.91 L 291.20,339.87 L 289.19,339.81 L 289.77,339.43 L 290.21,339.05 L 291.30,337.68 L 291.88,336.89 L 293.31,334.59 L 293.69,333.95 L 294.52,332.48 L 295.90,329.98 L 296.65,328.61 L 298.08,326.11 L 298.78,324.91 L 300.01,322.93 L 300.59,322.03 L 301.48,320.79 L 301.68,320.53 L 301.98,320.20 L 302.29,320.00 L 302.43,320.00 M 270.72,290.79 L 271.00,290.98 L 271.82,291.60 L 272.27,291.95 L 273.37,292.87 L 273.96,293.36 L 275.30,294.52 L 276.69,295.73 L 279.95,298.67 L 281.62,300.19 L 285.15,303.47 L 286.90,305.11 L 290.27,308.34 L 291.90,309.90 L 294.71,312.69 L 295.35,313.34 L 296.47,314.49 L 296.99,315.03 L 297.82,315.94 L 298.20,316.36 L 298.69,316.97 L 299.00,317.51 L 299.00,317.59 L 298.90,317.94 L 298.83,318.14 L 298.60,318.70 L 298.35,319.31 L 297.55,321.04 L 297.10,321.97 L 296.02,324.15 L 295.46,325.28 L 294.23,327.67 L 293.60,328.87 L 292.35,331.22 L 291.74,332.36 L 290.60,334.41 L 290.06,335.38 L 289.16,336.88 L 288.23,338.25 L 287.88,338.65 L 287.45,339.20 L 287.28,339.43 L 287.24,339.72 L 287.24,339.76 L 286.07,339.73 L 278.78,339.55 L 275.00,339.48 L 269.85,339.36 L 266.19,339.26 L 266.17,339.26 L 266.21,339.26 L 267.21,339.27 L 268.94,339.27 L 269.75,339.27 L 271.06,339.24 L 271.66,339.23 L 272.53,339.17 L 273.29,339.05 L 273.46,338.99 L 273.60,338.78 L 273.63,338.66 L 273.46,338.31 L 273.34,338.11 L 272.86,337.59 L 272.58,337.32 L 271.76,336.62 L 271.30,336.25 L 270.11,335.35 L 269.46,334.87 L 267.88,333.75 L 267.04,333.16 L 265.04,331.80 L 261.54,329.47 L 259.68,328.24 L 256.28,325.95 L 254.67,324.85 L 251.98,322.97 L 251.36,322.54 L 250.32,321.79 L 249.83,321.43 L 249.07,320.85 L 248.72,320.59 L 248.28,320.22 L 248.00,319.91 L 248.00,319.80 L 248.23,319.29 L 248.39,318.99 L 248.90,318.15 L 249.18,317.68 L 249.93,316.55 L 250.33,315.95 L 251.27,314.58 L 252.26,313.16 L 254.66,309.84 L 255.90,308.13 L 258.58,304.55 L 259.92,302.77 L 262.56,299.34 L 263.84,297.69 L 266.13,294.85 L 266.66,294.19 L 267.61,293.06 L 268.06,292.53 L 268.81,291.69 L 269.16,291.31 L 269.68,290.81 L 270.14,290.50 L 270.24,290.50 M 181.99,334.44 L 183.11,334.70 L 183.72,334.83 L 185.32,335.06 L 186.20,335.18 L 188.40,335.41 L 189.59,335.52 L 192.52,335.75 L 194.09,335.87 L 197.86,336.13 L 204.60,336.56 L 212.68,337.06 L 220.50,337.47 L 217.91,337.34 L 213.97,337.14 L 210.09,336.94 L 208.25,336.84 L 204.62,336.64 L 202.92,336.54 L 199.61,336.35 L 198.09,336.25 L 195.14,336.06 L 193.82,335.97 L 191.30,335.79 L 190.21,335.70 L 188.17,335.53 L 187.34,335.45 L 184.54,335.08 L 182.96,334.75 L 182.31,334.55 L 181.69,334.33 M 181.56,334.29 L 181.10,334.12 L 180.64,333.87 L 180.56,333.82 M 178.63,331.00 L 178.86,331.59 L 179.26,332.44 L 179.81,333.25 L 180.05,333.50 L 179.81,333.34 L 179.53,333.03 L 178.96,331.92 L 178.47,330.59 L 178.42,330.42 M 244.98,262.90 L 245.21,263.02 L 245.86,263.50 L 246.22,263.78 L 247.09,264.54 L 247.55,264.95 L 248.59,265.94 L 249.68,266.98 L 252.22,269.57 L 253.53,270.92 L 256.26,273.86 L 257.63,275.35 L 260.24,278.31 L 261.50,279.75 L 263.68,282.37 L 264.18,282.99 L 265.04,284.10 L 265.45,284.63 L 266.09,285.54 L 266.38,285.96 L 266.76,286.62 L 267.00,287.29 L 267.00,287.48 L 266.74,288.17 L 266.57,288.56 L 266.02,289.56 L 263.67,293.09 L 263.44,293.39 L 262.85,294.18 L 262.54,294.61 L 261.80,295.61 L 261.04,296.66 L 259.19,299.21 L 253.08,307.75 L 252.08,309.16 L 250.20,311.73 L 249.29,312.96 L 247.73,314.99 L 247.01,315.92 L 245.94,317.19 L 245.72,317.45 L 245.38,317.79 L 245.09,318.00 L 245.04,318.00 L 244.67,317.79 L 244.44,317.65 L 243.75,317.18 L 243.36,316.92 L 242.38,316.22 L 241.85,315.84 L 240.62,314.95 L 239.33,314.00 L 236.18,311.64 L 234.53,310.40 L 230.89,307.60 L 229.04,306.17 L 225.55,303.44 L 223.88,302.12 L 220.98,299.79 L 220.31,299.24 L 219.14,298.28 L 218.58,297.82 L 217.66,297.04 L 217.24,296.68 L 216.62,296.13 L 216.08,295.60 L 215.79,295.25 L 215.55,294.57 L 215.49,294.22 L 215.82,293.35 L 216.06,292.86 L 217.09,291.53 L 217.40,291.16 L 218.17,290.28 L 219.56,288.74 L 222.32,285.74 L 227.96,279.71 L 229.34,278.24 L 232.01,275.43 L 233.32,274.05 L 235.75,271.51 L 236.93,270.28 L 239.02,268.12 L 240.02,267.10 L 241.68,265.43 L 242.44,264.67 L 243.56,263.60 L 244.50,262.78 L 244.59,262.73 M 167.11,314.39 L 165.86,311.64 L 165.35,310.38 M 220.09,230.19 L 220.27,230.31 L 220.73,230.73 L 221.23,231.20 L 222.62,232.72 L 223.36,233.56 L 225.10,235.66 L 227.91,239.25 L 229.83,241.79 L 234.05,247.34 L 235.06,248.65 L 236.87,251.00 L 239.02,253.78 L 239.59,254.51 L 240.59,255.90 L 241.07,256.58 L 241.84,257.76 L 242.18,258.32 L 242.62,259.16 L 242.82,259.91 L 242.79,259.98 L 242.41,260.46 L 242.17,260.75 L 241.40,261.62 L 240.97,262.10 L 239.87,263.30 L 239.28,263.94 L 237.91,265.42 L 237.20,266.18 L 235.61,267.87 L 234.80,268.73 L 233.06,270.58 L 231.28,272.44 L 227.51,276.39 L 225.62,278.36 L 221.95,282.15 L 221.06,283.07 L 219.38,284.79 L 218.56,285.63 L 217.06,287.15 L 216.34,287.87 L 215.08,289.13 L 214.49,289.72 L 213.53,290.66 L 213.09,291.08 L 212.49,291.64 L 212.04,291.98 L 211.89,291.98 L 211.31,291.75 L 211.00,291.62 L 210.32,291.22 L 210.25,291.17 L 209.92,290.91 L 209.73,290.76 L 209.20,290.30 L 208.61,289.80 L 206.90,288.28 L 205.97,287.46 L 203.70,285.41 L 202.52,284.34 L 199.87,281.93 L 197.16,279.45 L 191.36,274.09 L 189.93,272.77 L 187.22,270.24 L 183.51,266.74 L 178.50,261.99 L 182.00,258.89 L 182.47,258.48 L 183.64,257.48 L 184.27,256.95 L 185.72,255.75 L 187.24,254.51 L 190.89,251.59 L 192.79,250.08 L 196.92,246.84 L 199.01,245.21 L 203.23,241.96 L 205.32,240.37 L 209.24,237.40 L 210.19,236.69 L 211.96,235.37 L 212.82,234.73 L 214.38,233.58 L 215.13,233.04 L 216.44,232.10 L 217.06,231.66 L 218.06,230.97 L 218.52,230.66 L 219.18,230.25 L 219.71,230.00 L 219.79,230.00 M 146.50,248.28 L 146.90,250.62 L 148.61,259.78 L 149.61,264.15 L 151.72,272.77 L 152.97,276.99 L 153.49,278.68 L 153.03,277.27 L 152.26,274.82 L 150.91,270.20 L 150.28,267.95 L 149.23,263.80 L 148.04,258.21 L 147.84,257.14 L 147.38,254.25 L 147.13,252.70 L 146.60,249.08 L 146.33,247.21 L 146.24,246.56 M 185.20,167.76 L 185.49,167.86 L 185.81,168.26 L 186.00,169.13 L 186.00,169.21 L 186.11,169.60 L 186.19,169.83 L 186.44,170.48 L 186.72,171.20 L 187.64,173.29 L 188.15,174.43 L 189.42,177.15 L 191.59,181.64 L 192.36,183.20 L 193.73,186.12 L 194.38,187.53 L 195.43,189.96 L 195.90,191.08 L 196.51,192.74 L 196.63,193.09 L 196.77,193.61 L 196.81,194.06 L 196.79,194.13 L 196.31,194.50 L 196.00,194.72 L 195.01,195.34 L 194.45,195.68 L 193.00,196.53 L 192.22,196.98 L 190.36,198.02 L 189.39,198.56 L 187.19,199.76 L 186.06,200.38 L 183.58,201.70 L 175.37,206.00 L 173.74,206.83 L 170.75,208.40 L 169.29,209.16 L 166.64,210.58 L 165.37,211.27 L 163.10,212.53 L 162.01,213.13 L 160.14,214.21 L 159.25,214.73 L 157.81,215.62 L 157.14,216.03 L 156.14,216.72 L 155.70,217.03 L 155.18,217.49 L 154.95,217.92 L 155.00,218.01 L 155.46,217.98 L 155.75,217.93 L 156.66,217.64 L 157.18,217.46 L 158.53,216.92 L 159.26,216.62 L 161.03,215.83 L 161.97,215.41 L 164.15,214.38 L 165.28,213.84 L 167.85,212.59 L 169.18,211.93 L 172.11,210.46 L 176.91,208.00 L 179.83,206.49 L 185.23,203.73 L 186.51,203.07 L 188.90,201.86 L 190.06,201.28 L 192.14,200.23 L 193.13,199.73 L 194.84,198.89 L 195.65,198.49 L 196.93,197.87 L 197.51,197.59 L 198.30,197.22 L 198.87,197.00 L 198.96,197.00 L 199.48,197.57 L 199.78,197.94 L 200.64,199.13 L 201.10,199.79 L 202.19,201.43 L 203.96,204.25 L 204.57,205.25 L 206.06,207.64 L 206.84,208.88 L 208.52,211.52 L 209.36,212.83 L 211.02,215.39 L 213.26,218.80 L 213.93,219.81 L 215.13,221.71 L 215.69,222.62 L 216.61,224.21 L 217.02,224.95 L 217.55,226.06 L 217.82,226.97 L 217.80,227.03 L 217.36,227.44 L 217.08,227.70 L 216.16,228.47 L 215.66,228.90 L 214.34,229.99 L 213.64,230.56 L 211.98,231.90 L 211.11,232.60 L 209.18,234.15 L 208.19,234.94 L 206.05,236.64 L 203.87,238.37 L 199.17,242.07 L 196.81,243.93 L 192.13,247.56 L 189.85,249.34 L 185.72,252.50 L 184.75,253.25 L 183.00,254.57 L 182.17,255.20 L 180.74,256.27 L 180.07,256.76 L 179.03,257.52 L 177.97,258.24 L 177.50,258.53 L 176.62,258.68 L 176.39,258.66 L 175.87,258.48 L 175.59,258.35 L 174.93,257.90 L 174.58,257.64 L 173.73,256.89 L 173.27,256.48 L 172.17,255.38 L 171.58,254.78 L 170.15,253.29 L 167.60,250.56 L 159.28,241.62 L 160.10,247.56 L 160.23,248.49 L 160.39,249.46 L 160.33,249.13 L 159.09,242.72 L 156.64,229.87 L 155.48,223.50 L 155.14,221.69 L 154.84,220.13 L 154.66,219.20 L 154.28,217.26 L 154.07,216.17 L 153.63,213.90 L 153.39,212.68 L 152.38,207.56 L 151.84,204.82 L 150.73,199.25 L 150.18,196.50 L 148.45,187.87 L 147.35,182.36 L 147.44,182.45 L 147.59,182.51 L 148.02,182.31 L 148.95,181.54 L 149.42,181.12 L 150.41,180.45 L 151.51,180.00 L 151.57,180.00 L 152.00,179.87 L 152.26,179.78 L 153.06,179.48 L 153.50,179.31 L 154.63,178.87 L 155.23,178.64 L 156.64,178.07 L 158.11,177.47 L 161.72,175.98 L 167.78,173.43 L 169.60,172.65 L 172.74,171.35 L 174.24,170.74 L 176.77,169.75 L 177.97,169.29 L 179.95,168.61 L 180.87,168.30 L 182.35,167.91 L 183.04,167.75 L 184.08,167.63 L 184.55,167.61 M 142.96,219.36 L 143.51,225.12 L 143.80,227.87 L 143.96,229.32 L 143.94,229.13 L 143.54,225.73 L 143.36,224.13 L 143.10,221.56 L 143.04,220.99 L 142.97,220.05 L 142.91,219.00 L 142.89,218.60 M 175.76,140.18 L 176.05,140.31 L 176.50,140.80 L 176.71,141.09 L 177.04,141.95 L 177.48,143.73 L 177.57,144.24 L 177.94,145.80 L 178.15,146.64 L 178.70,148.68 L 180.67,155.35 L 181.06,156.57 L 181.65,158.71 L 181.91,159.72 L 182.25,161.38 L 182.38,162.14 L 182.45,163.24 L 182.23,164.17 L 182.12,164.28 L 181.36,164.71 L 180.90,164.95 L 179.49,165.63 L 178.71,166.00 L 176.72,166.90 L 175.66,167.38 L 173.18,168.46 L 171.88,169.03 L 168.98,170.27 L 167.48,170.90 L 164.24,172.25 L 153.62,176.59 L 152.81,176.92 L 151.28,177.47 L 150.54,177.73 L 149.25,178.13 L 148.65,178.30 L 147.76,178.49 L 147.01,178.51 L 146.91,178.45 L 146.77,178.53 L 146.71,178.61 L 146.65,178.88 L 146.16,176.39 L 145.90,175.09 L 145.40,172.54 L 145.17,171.38 L 144.72,169.14 L 144.53,168.16 L 144.17,166.31 L 144.02,165.55 L 143.12,161.18 L 142.52,158.50 L 142.24,157.37 L 141.71,155.26 L 141.49,154.52 L 141.28,153.84 L 141.20,153.59 L 141.03,153.16 L 140.97,153.05 L 140.73,152.93 L 140.58,153.16 L 140.52,153.42 L 140.40,154.05 L 140.35,154.49 L 140.26,155.48 L 140.22,156.10 L 140.16,157.42 L 140.13,158.19 L 140.09,159.81 L 140.08,160.72 L 140.05,164.64 L 140.08,166.94 L 140.15,171.74 L 140.22,174.39 L 140.39,179.83 L 140.51,182.71 L 141.07,194.58 L 141.48,200.54 L 142.19,210.27 L 142.70,216.43 L 142.71,216.63 L 142.70,216.57 L 142.64,216.49 L 142.48,216.79 L 142.13,217.88 L 142.00,218.37 L 141.75,219.01 L 141.63,219.28 L 141.38,219.53 L 141.25,219.60 L 140.94,219.47 L 140.37,218.88 L 140.20,218.66 L 139.73,218.04 L 139.48,217.70 L 138.88,216.86 L 138.25,215.98 L 136.68,213.70 L 135.86,212.51 L 134.03,209.82 L 133.11,208.44 L 131.22,205.61 L 130.28,204.20 L 128.50,201.50 L 127.65,200.19 L 126.17,197.90 L 125.49,196.83 L 124.49,195.22 L 124.28,194.88 L 123.99,194.36 L 123.74,193.88 L 123.57,193.40 L 123.77,192.55 L 123.88,192.34 L 124.28,191.91 L 124.51,191.70 L 125.20,191.25 L 125.58,191.02 L 126.58,190.53 L 127.13,190.28 L 128.50,189.71 L 129.24,189.42 L 131.01,188.76 L 134.16,187.64 L 135.32,187.24 L 137.11,186.53 L 137.92,186.19 L 139.05,185.59 L 139.53,185.30 L 140.02,184.79 L 140.07,184.11 L 139.88,183.80 L 138.99,183.62 L 138.71,183.61 L 137.98,183.71 L 137.59,183.79 L 136.58,184.06 L 136.04,184.22 L 134.73,184.68 L 134.03,184.94 L 132.37,185.59 L 131.49,185.94 L 129.43,186.80 L 125.87,188.34 L 125.32,188.58 L 124.38,188.94 L 123.93,189.09 L 123.15,189.22 L 122.77,189.26 L 122.09,189.13 L 121.75,189.02 L 121.10,188.56 L 120.77,188.28 L 120.09,187.44 L 119.74,186.97 L 118.96,185.70 L 118.55,185.00 L 117.62,183.24 L 115.97,180.00 L 114.74,177.55 L 112.66,172.83 L 112.18,171.68 L 111.33,169.52 L 110.93,168.47 L 110.27,166.54 L 109.97,165.62 L 109.51,163.99 L 109.31,163.22 L 109.07,161.95 L 108.99,161.37 L 109.00,160.54 L 109.33,159.86 L 109.44,159.79 L 110.25,159.50 L 110.75,159.33 L 112.23,158.85 L 113.04,158.58 L 115.10,157.94 L 116.18,157.60 L 118.70,156.84 L 120.00,156.44 L 122.87,155.58 L 124.34,155.14 L 127.46,154.22 L 137.25,151.37 L 137.59,151.27 L 138.10,151.26 L 138.33,151.29 L 138.66,151.56 L 138.81,151.74 L 138.99,152.35 L 139.14,153.68 L 139.16,154.23 L 139.22,154.95 L 139.25,155.24 L 139.33,155.47 L 139.37,155.52 L 139.48,155.26 L 139.69,154.35 L 139.81,153.76 L 140.49,152.40 L 141.81,150.71 L 141.92,150.61 L 142.45,150.32 L 142.76,150.17 L 143.63,149.78 L 144.10,149.58 L 145.27,149.11 L 145.88,148.87 L 147.29,148.35 L 148.76,147.80 L 152.21,146.60 L 154.00,145.99 L 157.79,144.74 L 159.69,144.12 L 163.43,142.96 L 165.25,142.40 L 168.54,141.44 L 169.31,141.22 L 170.70,140.85 L 171.37,140.67 L 172.52,140.39 L 173.05,140.27 L 173.90,140.10 L 174.78,140.00 L 175.16,140.00 M 136.69,121.50 L 141.06,121.84 L 143.29,122.05 L 147.94,122.73 L 150.28,123.11 L 155.09,124.12 L 157.50,124.66 L 162.34,125.99 L 169.50,128.32 L 170.69,128.76 L 172.46,129.50 L 173.26,129.86 L 174.36,130.54 L 174.83,130.88 L 175.40,131.61 L 175.83,132.87 L 175.93,133.52 L 175.81,134.79 L 175.29,136.11 L 175.19,136.21 L 174.66,136.49 L 174.34,136.64 L 173.42,137.02 L 172.91,137.22 L 171.65,137.69 L 170.98,137.93 L 169.43,138.46 L 167.83,139.00 L 164.04,140.20 L 162.08,140.82 L 157.94,142.06 L 155.87,142.67 L 151.84,143.81 L 149.88,144.36 L 146.44,145.25 L 145.63,145.46 L 144.22,145.79 L 143.55,145.95 L 142.44,146.18 L 141.93,146.28 L 141.19,146.38 L 140.55,146.38 L 140.12,146.22 L 139.45,146.27 L 139.00,146.83 L 139.00,146.90 L 138.79,147.10 L 138.65,147.21 L 138.19,147.48 L 137.67,147.77 L 135.99,148.49 L 135.06,148.86 L 132.73,149.71 L 128.75,151.00 L 125.93,151.86 L 120.21,153.64 L 118.88,154.05 L 116.60,154.76 L 114.07,155.57 L 113.37,155.79 L 112.20,156.16 L 111.65,156.33 L 110.75,156.58 L 109.92,156.80 L 108.87,156.88 L 108.41,156.86 L 107.87,156.45 L 107.62,156.18 L 107.22,155.25 L 107.12,155.01 L 106.94,153.94 L 106.86,153.32 L 106.72,151.66 L 106.66,150.78 L 106.57,148.74 L 106.52,145.50 L 106.53,144.05 L 106.71,141.43 L 106.83,140.15 L 107.25,137.84 L 107.50,136.72 L 108.19,134.69 L 108.58,133.71 L 109.56,131.92 L 110.09,131.06 L 111.39,129.48 L 112.08,128.72 L 113.71,127.32 L 114.57,126.64 L 116.56,125.38 L 119.96,123.60 L 121.10,123.08 L 123.92,122.33 L 125.41,122.00 L 128.87,121.62 L 130.67,121.48 L 134.65,121.46 Z" fill="rgba(180,149,115,1)"/>
<path d="M 140.97,153.05 L 141.03,153.16 L 141.20,153.59 L 141.28,153.84 L 141.49,154.52 L 141.71,155.26 L 142.24,157.37 L 142.52,158.50 L 143.12,161.18 L 144.02,165.55 L 144.17,166.31 L 144.53,168.16 L 144.72,169.14 L 145.17,171.38 L 145.40,172.54 L 145.90,175.09 L 146.16,176.39 L 146.71,179.16 L 147.27,181.96 L 148.45,187.87 L 150.18,196.50 L 150.73,199.25 L 151.84,204.82 L 152.38,207.56 L 153.39,212.68 L 153.63,213.90 L 154.07,216.17 L 154.28,217.26 L 154.66,219.20 L 154.84,220.13 L 155.14,221.69 L 155.48,223.50 L 156.64,229.87 L 159.09,242.72 L 160.33,249.13 L 162.83,261.72 L 164.08,267.94 L 166.55,279.83 L 167.16,282.73 L 168.35,288.33 L 168.94,291.09 L 170.09,296.36 L 170.66,298.94 L 171.75,303.81 L 172.29,306.20 L 173.31,310.62 L 173.81,312.77 L 174.75,316.69 L 175.21,318.59 L 176.06,321.94 L 176.47,323.55 L 177.21,326.29 L 177.56,327.58 L 178.18,329.64 L 178.47,330.59 L 178.96,331.92 L 179.53,333.03 L 179.81,333.34 L 180.64,333.87 L 181.10,334.12 L 182.31,334.55 L 182.96,334.75 L 184.54,335.08 L 187.34,335.45 L 188.17,335.53 L 190.21,335.70 L 191.30,335.79 L 193.82,335.97 L 195.14,336.06 L 198.09,336.25 L 199.61,336.35 L 202.92,336.54 L 204.62,336.64 L 208.25,336.84 L 210.09,336.94 L 213.97,337.14 L 217.91,337.34 L 226.30,337.74 L 234.80,338.13 L 252.12,338.80 L 256.32,338.95 L 264.26,339.20 L 266.19,339.26 L 269.85,339.36 L 275.00,339.48 L 278.78,339.55 L 286.07,339.73 L 287.84,339.77 L 291.20,339.87 L 292.85,339.91 L 295.89,340.00 L 297.36,340.05 L 300.00,340.14 L 301.25,340.18 L 303.39,340.27 L 304.39,340.31 L 305.93,340.38 L 307.50,340.48 L 307.84,340.51 L 309.07,340.58 L 309.76,340.62 L 311.61,340.71 L 312.61,340.75 L 315.00,340.84 L 316.26,340.89 L 319.11,340.99 L 320.58,341.04 L 323.80,341.14 L 325.44,341.19 L 328.93,341.29 L 340.00,341.58 L 343.78,341.67 L 350.71,341.86 L 352.36,341.91 L 355.42,342.01 L 356.90,342.06 L 359.54,342.15 L 360.81,342.20 L 362.97,342.29 L 363.98,342.33 L 365.58,342.42 L 366.31,342.46 L 367.27,342.53 L 367.92,342.62 L 368.07,342.76 L 368.20,343.00 L 368.22,343.12 L 367.97,343.36 L 367.78,343.48 L 366.99,343.73 L 366.50,343.86 L 365.00,344.16 L 364.14,344.32 L 361.75,344.71 L 361.09,344.81 L 359.58,345.03 L 358.79,345.15 L 357.00,345.41 L 356.07,345.54 L 353.99,345.83 L 352.90,345.98 L 350.50,346.31 L 349.26,346.48 L 346.52,346.85 L 342.00,347.46 L 337.29,348.09 L 328.05,349.19 L 323.46,349.71 L 314.52,350.58 L 310.09,350.99 L 301.54,351.64 L 297.31,351.93 L 289.22,352.34 L 285.24,352.51 L 277.69,352.69 L 273.99,352.75 L 267.06,352.68 L 263.69,352.62 L 257.46,352.31 L 249.00,351.56 L 247.14,351.34 L 243.12,350.79 L 241.06,350.50 L 236.73,349.81 L 232.34,349.10 L 223.00,347.34 L 218.30,346.42 L 208.90,344.37 L 195.50,341.10 L 193.99,340.70 L 191.21,339.99 L 189.88,339.66 L 187.65,339.12 L 186.63,338.88 L 185.21,338.58 L 184.91,338.52 L 184.51,338.45 L 184.24,338.44 L 184.20,338.48 L 184.26,338.84 L 184.31,339.07 L 184.52,339.75 L 185.58,342.54 L 186.03,343.62 L 186.44,346.18 L 186.50,346.87 L 186.50,348.36 L 186.47,349.14 L 186.29,350.84 L 186.18,351.72 L 185.82,353.65 L 185.62,354.65 L 185.09,356.84 L 184.79,357.97 L 184.07,360.44 L 182.78,364.50 L 182.34,365.84 L 181.34,368.38 L 180.83,369.63 L 179.75,371.92 L 179.21,373.04 L 178.10,375.01 L 177.54,375.95 L 176.45,377.53 L 175.92,378.26 L 174.91,379.37 L 174.42,379.85 L 173.55,380.41 L 173.13,380.61 L 172.45,380.54 L 172.14,380.43 L 171.70,379.66 L 171.63,379.48 L 171.69,378.52 L 171.75,377.95 L 172.03,376.37 L 172.20,375.52 L 172.66,373.53 L 173.53,370.30 L 173.85,369.19 L 174.52,366.28 L 174.85,364.75 L 175.49,361.30 L 175.79,359.55 L 176.32,355.98 L 176.92,350.96 L 177.06,349.39 L 177.27,346.74 L 177.36,345.49 L 177.45,343.43 L 177.47,342.47 L 177.41,340.95 L 177.36,340.25 L 177.14,339.20 L 177.01,338.73 L 176.60,338.08 L 176.38,337.80 L 175.77,337.50 L 175.45,337.39 L 174.63,337.36 L 173.14,337.57 L 170.63,338.10 L 166.14,339.19 L 163.96,339.76 L 159.91,340.98 L 157.91,341.62 L 154.01,343.08 L 148.01,345.62 L 146.77,346.18 L 144.62,347.09 L 143.61,347.51 L 141.90,348.14 L 141.10,348.42 L 139.81,348.77 L 139.22,348.91 L 138.35,348.98 L 137.96,348.98 L 137.49,348.77 L 137.30,348.63 L 137.21,348.14 L 137.21,347.86 L 137.50,347.08 L 138.34,345.61 L 138.77,344.95 L 140.32,343.43 L 141.19,342.64 L 143.46,340.95 L 144.66,340.09 L 147.41,338.36 L 148.83,337.49 L 151.85,335.83 L 153.37,335.02 L 156.43,333.55 L 157.94,332.85 L 160.81,331.70 L 162.20,331.17 L 164.66,330.45 L 167.65,329.98 L 168.41,329.98 L 169.63,329.91 L 170.20,329.86 L 171.06,329.64 L 171.44,329.50 L 171.93,329.04 L 172.13,328.77 L 172.26,327.99 L 172.28,327.55 L 172.05,326.37 L 171.89,325.72 L 171.30,324.05 L 170.96,323.15 L 170.02,320.92 L 168.21,316.84 L 167.11,314.39 L 165.04,309.67 L 164.03,307.33 L 162.14,302.80 L 160.30,298.31 L 157.10,289.70 L 155.58,285.43 L 152.97,276.99 L 151.72,272.77 L 149.61,264.15 L 148.61,259.78 L 146.90,250.62 L 146.50,248.28 L 145.76,243.43 L 145.40,240.98 L 144.73,235.87 L 144.41,233.28 L 143.80,227.87 L 143.51,225.12 L 142.96,219.36 L 142.70,216.43 L 142.19,210.27 L 141.48,200.54 L 141.07,194.58 L 140.51,182.71 L 140.39,179.83 L 140.22,174.39 L 140.15,171.74 L 140.08,166.94 L 140.05,164.64 L 140.08,160.72 L 140.09,159.81 L 140.13,158.19 L 140.16,157.42 L 140.22,156.10 L 140.26,155.48 L 140.35,154.49 L 140.40,154.05 L 140.52,153.42 L 140.58,153.16 L 140.73,152.93 Z" fill="rgba(209,75,63,1)"/>
<path d="M 352.01,136.95 L 352.10,137.26 L 352.41,138.52 L 352.50,138.90 L 352.73,139.89 L 352.85,140.42 L 353.14,141.75 L 353.30,142.46 L 353.66,144.18 L 353.86,145.10 L 354.31,147.26 L 354.55,148.40 L 355.10,151.05 L 355.39,152.44 L 356.05,155.64 L 356.40,157.30 L 357.18,161.09 L 357.59,163.06 L 358.49,167.48 L 358.97,169.78 L 360.01,174.90 L 360.56,177.55 L 361.76,183.41 L 362.38,186.43 L 363.74,193.08 L 365.97,204.00 L 366.92,208.67 L 368.74,217.56 L 369.64,221.93 L 371.33,230.21 L 372.16,234.27 L 373.74,241.95 L 374.51,245.72 L 375.97,252.81 L 376.69,256.28 L 378.03,262.78 L 378.68,265.96 L 379.91,271.88 L 380.50,274.77 L 381.61,280.12 L 382.16,282.72 L 383.15,287.51 L 383.64,289.83 L 384.52,294.06 L 384.95,296.10 L 385.73,299.78 L 386.10,301.55 L 386.77,304.68 L 387.09,306.18 L 387.65,308.77 L 387.91,310.00 L 388.37,312.06 L 388.58,313.03 L 388.93,314.57 L 389.09,315.27 L 389.34,316.29 L 389.59,317.25 L 389.74,317.72 L 389.90,318.38 L 389.96,318.66 L 389.95,318.95 L 389.93,319.05 L 389.76,318.99 L 389.66,318.91 L 389.34,318.51 L 389.17,318.26 L 388.71,317.52 L 388.46,317.11 L 387.87,316.06 L 387.56,315.49 L 386.85,314.13 L 386.47,313.41 L 385.64,311.75 L 384.14,308.72 L 380.81,302.59 L 379.09,299.51 L 375.32,293.29 L 373.38,290.18 L 369.20,283.89 L 367.05,280.75 L 362.46,274.41 L 360.11,271.23 L 355.11,264.86 L 352.57,261.67 L 347.19,255.27 L 344.45,252.07 L 338.69,245.66 L 329.64,236.06 L 323.57,229.81 L 311.01,217.76 L 304.67,211.82 L 291.67,200.48 L 286.63,196.18 L 292.67,201.19 L 296.28,204.30 L 303.45,210.58 L 306.96,213.77 L 313.91,220.19 L 317.29,223.45 L 323.98,229.98 L 327.21,233.28 L 333.60,239.91 L 336.67,243.24 L 342.71,249.92 L 345.59,253.27 L 347.42,255.38 L 348.43,256.52 L 348.84,256.96 L 349.61,257.78 L 349.92,258.07 L 350.49,258.58 L 350.72,258.73 L 351.50,259.09 L 351.77,258.94 L 352.27,258.43 L 352.53,257.94 L 353.28,256.91 L 353.84,256.76 L 354.27,257.02 L 354.74,257.34 L 355.03,257.59 L 355.65,258.17 L 356.03,258.56 L 356.86,259.43 L 357.36,259.97 L 358.43,261.15 L 359.08,261.86 L 360.56,263.48 L 361.24,264.20 L 362.57,265.57 L 363.14,266.12 L 364.18,267.12 L 364.55,267.44 L 365.17,267.93 L 365.28,267.94 L 365.39,267.73 L 365.29,267.36 L 365.15,267.06 L 364.81,266.36 L 364.55,265.88 L 363.96,264.85 L 363.56,264.19 L 362.71,262.79 L 362.18,261.95 L 361.05,260.18 L 360.39,259.14 L 358.98,256.97 L 358.17,255.73 L 356.47,253.16 L 355.51,251.71 L 351.87,246.23 L 352.08,191.59 L 352.11,180.61 L 352.12,173.62 L 352.12,170.34 L 352.12,163.94 L 352.11,161.02 L 352.10,155.36 L 352.09,152.87 L 352.07,148.11 L 352.05,146.12 L 352.03,144.19 L 352.02,143.33 L 352.00,141.69 L 351.99,140.99 L 351.97,139.65 L 351.96,139.10 L 351.93,138.09 L 351.92,137.71 L 351.89,137.03 L 351.88,136.83 L 351.85,136.53 M 281.62,192.06 L 283.61,193.69 L 275.29,187.09 M 329.42,134.58 L 333.10,134.84 L 334.90,134.98 L 338.22,135.23 L 339.83,135.35 L 342.71,135.58 L 344.08,135.69 L 346.43,135.88 L 347.53,135.98 L 349.27,136.14 L 350.05,136.21 L 351.10,136.33 L 351.79,136.46 L 351.84,136.51 L 351.83,136.50 L 351.13,136.37 L 350.08,136.24 L 349.30,136.17 L 347.55,136.00 L 346.45,135.90 L 344.10,135.70 L 342.72,135.59 L 339.84,135.36 L 338.23,135.23 L 334.90,134.98 L 333.10,134.85 L 329.42,134.58 L 327.47,134.44 L 323.50,134.16 L 327.47,134.44 Z" fill="rgba(211,180,135,1)"/>
<path d="M 365.39,267.73 L 365.28,267.94 L 365.27,267.94 L 365.36,267.61 M 164.57,122.33 L 166.50,122.50 L 167.15,122.56 L 168.95,122.72 L 169.46,122.76 L 170.66,122.86 L 171.29,122.91 L 172.77,123.02 L 173.55,123.08 L 175.36,123.22 L 176.31,123.29 L 178.49,123.46 L 179.64,123.54 L 182.24,123.74 L 183.61,123.84 L 186.68,124.07 L 188.28,124.18 L 191.86,124.45 L 193.73,124.58 L 197.87,124.89 L 200.02,125.04 L 204.77,125.39 L 207.22,125.56 L 212.62,125.96 L 215.41,126.16 L 221.51,126.60 L 224.64,126.83 L 231.48,127.32 L 235.00,127.57 L 242.62,128.12 L 255.00,129.02 L 256.86,129.15 L 261.15,129.47 L 263.35,129.64 L 267.91,130.00 L 270.18,130.18 L 274.47,130.53 L 280.00,130.99 L 280.79,131.06 L 282.92,131.24 L 284.07,131.33 L 286.83,131.54 L 288.28,131.66 L 291.55,131.90 L 293.24,132.03 L 296.92,132.30 L 300.67,132.57 L 308.91,133.16 L 321.44,134.03 L 323.50,134.16 L 327.47,134.44 L 329.42,134.58 L 333.10,134.85 L 334.90,134.98 L 338.23,135.23 L 339.84,135.36 L 342.72,135.59 L 344.10,135.70 L 346.45,135.90 L 347.55,136.00 L 349.30,136.17 L 350.08,136.24 L 351.13,136.37 L 351.83,136.50 L 351.85,136.52 L 351.88,136.83 L 351.89,137.03 L 351.92,137.71 L 351.93,138.09 L 351.96,139.10 L 351.97,139.65 L 351.99,140.99 L 352.00,141.69 L 352.02,143.33 L 352.03,144.19 L 352.05,146.12 L 352.07,148.11 L 352.09,152.87 L 352.10,155.36 L 352.11,161.02 L 352.12,163.94 L 352.12,170.34 L 352.12,173.62 L 352.11,180.61 L 352.08,191.59 L 351.87,246.23 L 355.51,251.71 L 356.47,253.16 L 358.17,255.73 L 358.98,256.97 L 360.04,258.61 L 359.20,257.34 L 358.41,256.18 L 356.78,253.79 L 355.90,252.51 L 354.09,249.92 L 353.13,248.57 L 349.18,243.01 L 347.07,240.12 L 342.81,234.31 L 340.65,231.45 L 336.35,225.78 L 334.29,223.14 L 330.25,218.02 L 328.42,215.80 L 324.61,211.32 L 321.87,208.20 L 320.43,206.61 L 314.51,200.22 L 311.51,197.15 L 308.52,194.11 L 307.07,192.68 L 304.19,189.87 L 302.82,188.58 L 300.14,186.09 L 298.92,185.00 L 296.54,182.93 L 295.50,182.09 L 289.15,177.33 L 284.23,173.96 L 281.49,172.21 L 275.84,168.68 L 272.81,166.89 L 266.61,163.30 L 263.38,161.51 L 256.83,157.97 L 253.50,156.25 L 246.79,152.86 L 243.45,151.26 L 236.78,148.13 L 233.52,146.69 L 227.07,143.93 L 224.00,142.71 L 219.22,140.92 L 216.64,140.05 L 215.65,139.76 L 213.88,139.30 L 213.30,139.22 L 212.36,139.15 L 212.21,139.27 L 212.12,139.59 L 212.40,139.89 L 213.18,140.58 L 213.90,141.06 L 215.57,142.11 L 216.75,142.76 L 219.32,144.15 L 220.95,144.98 L 224.66,146.89 L 227.39,148.34 L 228.85,149.13 L 234.87,152.44 L 237.94,154.19 L 244.04,157.69 L 246.80,159.34 L 249.49,160.95 L 250.70,161.69 L 253.02,163.13 L 254.00,163.77 L 265.14,171.41 L 272.87,177.14 L 276.86,180.30 L 284.90,186.80 L 289.01,190.30 L 297.27,197.48 L 301.44,201.29 L 309.81,209.05 L 314.00,213.12 L 322.39,221.38 L 326.55,225.66 L 334.85,234.33 L 338.93,238.78 L 347.05,247.76 L 351.00,252.33 L 354.65,256.53 L 356.30,258.40 L 357.92,260.22 L 358.67,261.05 L 360.11,262.66 L 360.76,263.37 L 362.00,264.72 L 362.52,265.29 L 363.51,266.34 L 363.90,266.73 L 364.60,267.44 L 364.83,267.65 L 364.94,267.74 L 364.55,267.44 L 364.18,267.12 L 363.14,266.12 L 362.57,265.57 L 361.24,264.20 L 360.56,263.48 L 359.08,261.86 L 358.43,261.15 L 357.36,259.97 L 356.86,259.43 L 356.03,258.56 L 355.65,258.17 L 355.03,257.59 L 354.74,257.34 L 354.27,257.02 L 353.84,256.76 L 353.28,256.91 L 352.53,257.94 L 352.27,258.43 L 351.77,258.94 L 351.50,259.09 L 350.72,258.73 L 350.49,258.58 L 349.92,258.07 L 349.61,257.78 L 348.84,256.96 L 348.43,256.52 L 347.42,255.38 L 345.59,253.27 L 342.71,249.92 L 336.67,243.24 L 333.60,239.91 L 327.21,233.28 L 323.98,229.98 L 317.29,223.45 L 313.91,220.19 L 306.96,213.77 L 303.45,210.58 L 296.28,204.30 L 292.67,201.19 L 285.32,195.09 L 281.62,192.06 L 274.13,186.17 L 270.37,183.26 L 262.78,177.60 L 258.98,174.81 L 251.33,169.42 L 247.50,166.76 L 239.84,161.67 L 236.01,159.16 L 228.37,154.39 L 224.56,152.06 L 216.98,147.65 L 213.21,145.49 L 205.74,141.47 L 202.03,139.51 L 194.71,135.90 L 191.07,134.16 L 183.94,131.00 L 173.50,126.80 L 171.89,126.20 L 169.27,125.21 L 168.05,124.75 L 166.15,124.02 L 165.29,123.68 L 164.08,123.18 L 163.55,122.95 L 162.96,122.64 L 162.74,122.50 L 162.72,122.35 L 162.78,122.29 L 163.29,122.26 L 163.60,122.26 M 365.29,267.36 L 365.33,267.50 L 365.24,267.25 Z" fill="rgba(241,207,152,1)"/>
<path d="M 351.00,252.33 L 347.05,247.76 L 338.93,238.78 L 334.85,234.33 L 326.55,225.66 L 322.39,221.38 L 314.00,213.12 L 309.81,209.05 L 301.44,201.29 L 297.27,197.48 L 289.01,190.30 L 284.90,186.80 L 276.86,180.30 L 272.87,177.14 L 265.14,171.41 L 254.00,163.77 L 253.02,163.13 L 250.70,161.69 L 249.49,160.95 L 246.80,159.34 L 244.04,157.69 L 237.94,154.19 L 234.87,152.44 L 228.85,149.13 L 227.39,148.34 L 224.66,146.89 L 220.95,144.98 L 219.32,144.15 L 216.75,142.76 L 215.57,142.11 L 213.90,141.06 L 213.18,140.58 L 212.40,139.89 L 212.12,139.59 L 212.21,139.27 L 212.36,139.15 L 213.30,139.22 L 213.88,139.30 L 215.65,139.76 L 216.64,140.05 L 219.22,140.92 L 224.00,142.71 L 227.07,143.93 L 233.52,146.69 L 236.78,148.13 L 243.45,151.26 L 246.79,152.86 L 253.50,156.25 L 256.83,157.97 L 263.38,161.51 L 266.61,163.30 L 272.81,166.89 L 275.84,168.68 L 281.49,172.21 L 284.23,173.96 L 289.15,177.33 L 295.50,182.09 L 296.54,182.93 L 298.92,185.00 L 300.14,186.09 L 302.82,188.58 L 304.19,189.87 L 307.07,192.68 L 308.52,194.11 L 311.51,197.15 L 314.51,200.22 L 320.43,206.61 L 321.87,208.20 L 324.61,211.32 L 328.42,215.80 L 330.25,218.02 L 334.29,223.14 L 336.35,225.78 L 340.65,231.45 L 342.81,234.31 L 347.07,240.12 L 349.18,243.01 L 353.13,248.57 L 354.09,249.92 L 355.90,252.51 L 356.78,253.79 L 358.41,256.18 L 359.20,257.34 L 360.62,259.48 L 361.30,260.51 L 362.47,262.35 L 363.02,263.22 L 363.92,264.71 L 364.32,265.40 L 364.90,266.48 L 365.14,266.97 L 365.36,267.60 L 365.26,267.98 L 365.21,267.98 L 364.83,267.65 L 364.60,267.44 L 363.90,266.73 L 363.51,266.34 L 362.52,265.29 L 362.00,264.72 L 360.76,263.37 L 360.11,262.66 L 358.67,261.05 L 357.92,260.22 L 356.30,258.40 L 354.65,256.53 Z" fill="rgba(250,242,221,1)"/>
</g>
</svg>